<?xml version="1.0" encoding="utf-8" standalone="no"?>
<!DOCTYPE svg PUBLIC "-//W3C//DTD SVG 1.1//EN"
  "http://www.w3.org/Graphics/SVG/1.1/DTD/svg11.dtd">
<svg xmlns:xlink="http://www.w3.org/1999/xlink" width="432pt" height="360pt" viewBox="0 0 432 360" xmlns="http://www.w3.org/2000/svg" version="1.1">
 <metadata>
  <rdf:RDF xmlns:dc="http://purl.org/dc/elements/1.1/" xmlns:cc="http://creativecommons.org/ns#" xmlns:rdf="http://www.w3.org/1999/02/22-rdf-syntax-ns#">
   <cc:Work>
    <dc:type rdf:resource="http://purl.org/dc/dcmitype/StillImage"/>
    <dc:date>2024-05-14T16:06:51.332705</dc:date>
    <dc:format>image/svg+xml</dc:format>
    <dc:creator>
     <cc:Agent>
      <dc:title>Matplotlib v3.7.4, https://matplotlib.org/</dc:title>
     </cc:Agent>
    </dc:creator>
   </cc:Work>
  </rdf:RDF>
 </metadata>
 <defs>
  <style type="text/css">*{stroke-linejoin: round; stroke-linecap: butt}</style>
 </defs>
 <g id="figure_1">
  <g id="patch_1">
   <path d="M 0 360 
L 432 360 
L 432 0 
L 0 0 
z
" style="fill: #ffffff"/>
  </g>
  <g id="axes_1">
   <g id="patch_2">
    <path d="M 73.962061 303.08419 
L 416.749065 303.08419 
L 416.749065 43.956997 
L 73.962061 43.956997 
z
" style="fill: #ffffff"/>
   </g>
   <g id="matplotlib.axis_1">
    <g id="xtick_1">
     <g id="line2d_1">
      <path d="M 84.044032 303.08419 
L 84.044032 43.956997 
" clip-path="url(#p88f4336495)" style="fill: none; stroke: #b0b0b0; stroke-width: 0.8; stroke-linecap: square"/>
     </g>
     <g id="line2d_2">
      <defs>
       <path id="m97fa212a74" d="M 0 0 
L 0 3.5 
" style="stroke: #000000; stroke-width: 0.8"/>
      </defs>
      <g>
       <use xlink:href="#m97fa212a74" x="84.044032" y="303.08419" style="stroke: #000000; stroke-width: 0.8"/>
      </g>
     </g>
     <g id="text_1">
      <!-- $\mathdefault{25}$ -->
      <g transform="translate(76.198453 319.770067) scale(0.14 -0.14)">
       <defs>
        <path id="CMBX12-32" d="M 3232 1368 
L 2963 1368 
C 2944 1234 2899 858 2803 795 
C 2752 750 2253 750 2157 750 
L 1165 750 
C 1408 954 1990 1438 2086 1509 
C 2797 2038 3232 2362 3232 2974 
C 3232 3725 2547 4178 1702 4178 
C 979 4178 358 3770 358 3165 
C 358 2827 634 2732 781 2732 
C 979 2732 1210 2865 1210 3159 
C 1210 3427 1011 3560 813 3586 
C 1069 3879 1408 3904 1542 3904 
C 2131 3904 2413 3427 2413 2968 
C 2413 2471 2074 2013 1811 1739 
L 422 293 
C 358 235 358 223 358 108 
L 358 0 
L 3046 0 
L 3232 1368 
z
" transform="scale(0.015625)"/>
        <path id="CMBX12-35" d="M 986 3315 
C 1203 3264 1376 3264 1472 3264 
C 1626 3264 1990 3264 2419 3527 
C 2618 3647 2950 3936 2950 4083 
C 2950 4115 2950 4192 2874 4192 
C 2867 4192 2854 4192 2790 4159 
C 2496 4054 2182 3982 1824 3982 
C 1459 3982 1152 4052 851 4160 
C 806 4173 787 4186 768 4186 
C 691 4186 691 4122 691 4014 
L 691 2163 
C 691 2042 691 1972 819 1972 
C 883 1972 896 1979 947 2042 
C 1024 2132 1254 2414 1798 2414 
C 2387 2414 2387 1815 2387 1312 
C 2387 852 2387 190 1600 190 
C 1363 190 960 279 742 640 
C 1082 640 1165 895 1165 1035 
C 1165 1264 998 1435 762 1435 
C 570 1435 358 1321 358 1022 
C 358 470 864 -64 1626 -64 
C 2611 -64 3232 503 3232 1293 
C 3232 2070 2701 2624 1824 2624 
C 1568 2624 1261 2573 986 2369 
L 986 3315 
z
" transform="scale(0.015625)"/>
       </defs>
       <use xlink:href="#CMBX12-32" transform="scale(0.996264)"/>
       <use xlink:href="#CMBX12-35" transform="translate(56.039851 0) scale(0.996264)"/>
      </g>
     </g>
    </g>
    <g id="xtick_2">
     <g id="line2d_3">
      <path d="M 129.871172 303.08419 
L 129.871172 43.956997 
" clip-path="url(#p88f4336495)" style="fill: none; stroke: #b0b0b0; stroke-width: 0.8; stroke-linecap: square"/>
     </g>
     <g id="line2d_4">
      <g>
       <use xlink:href="#m97fa212a74" x="129.871172" y="303.08419" style="stroke: #000000; stroke-width: 0.8"/>
      </g>
     </g>
     <g id="text_2">
      <!-- $\mathdefault{50}$ -->
      <g transform="translate(122.025592 319.770067) scale(0.14 -0.14)">
       <defs>
        <path id="CMBX12-30" d="M 3309 2038 
C 3309 2648 3309 4178 1798 4178 
C 282 4178 282 2654 282 2038 
C 282 1428 282 -64 1792 -64 
C 3302 -64 3309 1409 3309 2038 
z
M 1798 146 
C 1594 146 1440 228 1312 362 
C 1152 521 1050 621 1050 2114 
C 1050 2559 1050 2964 1101 3295 
C 1190 3924 1651 3968 1792 3968 
C 1997 3968 2394 3873 2483 3340 
C 2541 3015 2541 2501 2541 2114 
C 2541 615 2445 527 2253 336 
C 2125 209 1952 146 1798 146 
z
" transform="scale(0.015625)"/>
       </defs>
       <use xlink:href="#CMBX12-35" transform="scale(0.996264)"/>
       <use xlink:href="#CMBX12-30" transform="translate(56.039851 0) scale(0.996264)"/>
      </g>
     </g>
    </g>
    <g id="xtick_3">
     <g id="line2d_5">
      <path d="M 175.698311 303.08419 
L 175.698311 43.956997 
" clip-path="url(#p88f4336495)" style="fill: none; stroke: #b0b0b0; stroke-width: 0.8; stroke-linecap: square"/>
     </g>
     <g id="line2d_6">
      <g>
       <use xlink:href="#m97fa212a74" x="175.698311" y="303.08419" style="stroke: #000000; stroke-width: 0.8"/>
      </g>
     </g>
     <g id="text_3">
      <!-- $\mathdefault{75}$ -->
      <g transform="translate(167.852732 319.770067) scale(0.14 -0.14)">
       <defs>
        <path id="CMBX12-37" d="M 3430 3865 
C 3488 3929 3488 3943 3488 4155 
L 2138 4155 
C 2093 4155 1139 4155 1062 4168 
C 902 4193 890 4260 877 4322 
L 608 4322 
L 397 2752 
L 666 2752 
C 672 2817 723 3280 832 3353 
C 890 3392 1421 3392 1523 3392 
L 2682 3392 
C 1939 2487 1856 2384 1658 2005 
C 1280 1259 1222 681 1222 366 
C 1222 -64 1549 -64 1600 -64 
C 1760 -64 1850 19 1894 64 
C 1978 168 1978 245 1978 528 
C 1978 1511 2067 2232 2470 2714 
L 3430 3865 
z
" transform="scale(0.015625)"/>
       </defs>
       <use xlink:href="#CMBX12-37" transform="scale(0.996264)"/>
       <use xlink:href="#CMBX12-35" transform="translate(56.039851 0) scale(0.996264)"/>
      </g>
     </g>
    </g>
    <g id="xtick_4">
     <g id="line2d_7">
      <path d="M 221.52545 303.08419 
L 221.52545 43.956997 
" clip-path="url(#p88f4336495)" style="fill: none; stroke: #b0b0b0; stroke-width: 0.8; stroke-linecap: square"/>
     </g>
     <g id="line2d_8">
      <g>
       <use xlink:href="#m97fa212a74" x="221.52545" y="303.08419" style="stroke: #000000; stroke-width: 0.8"/>
      </g>
     </g>
     <g id="text_4">
      <!-- $\mathdefault{100}$ -->
      <g transform="translate(209.757082 319.770067) scale(0.14 -0.14)">
       <defs>
        <path id="CMBX12-31" d="M 2214 3975 
C 2214 4160 2202 4160 1997 4160 
C 1523 3776 813 3776 672 3776 
L 550 3776 
L 550 3503 
L 672 3503 
C 896 3503 1235 3541 1491 3624 
L 1491 267 
L 602 267 
L 602 0 
C 870 0 1542 0 1843 0 
C 2144 0 2822 0 3091 0 
L 3091 267 
L 2214 267 
L 2214 3975 
z
" transform="scale(0.015625)"/>
       </defs>
       <use xlink:href="#CMBX12-31" transform="scale(0.996264)"/>
       <use xlink:href="#CMBX12-30" transform="translate(56.039851 0) scale(0.996264)"/>
       <use xlink:href="#CMBX12-30" transform="translate(112.079701 0) scale(0.996264)"/>
      </g>
     </g>
    </g>
    <g id="xtick_5">
     <g id="line2d_9">
      <path d="M 267.35259 303.08419 
L 267.35259 43.956997 
" clip-path="url(#p88f4336495)" style="fill: none; stroke: #b0b0b0; stroke-width: 0.8; stroke-linecap: square"/>
     </g>
     <g id="line2d_10">
      <g>
       <use xlink:href="#m97fa212a74" x="267.35259" y="303.08419" style="stroke: #000000; stroke-width: 0.8"/>
      </g>
     </g>
     <g id="text_5">
      <!-- $\mathdefault{125}$ -->
      <g transform="translate(255.584221 319.770067) scale(0.14 -0.14)">
       <use xlink:href="#CMBX12-31" transform="scale(0.996264)"/>
       <use xlink:href="#CMBX12-32" transform="translate(56.039851 0) scale(0.996264)"/>
       <use xlink:href="#CMBX12-35" transform="translate(112.079701 0) scale(0.996264)"/>
      </g>
     </g>
    </g>
    <g id="xtick_6">
     <g id="line2d_11">
      <path d="M 313.179729 303.08419 
L 313.179729 43.956997 
" clip-path="url(#p88f4336495)" style="fill: none; stroke: #b0b0b0; stroke-width: 0.8; stroke-linecap: square"/>
     </g>
     <g id="line2d_12">
      <g>
       <use xlink:href="#m97fa212a74" x="313.179729" y="303.08419" style="stroke: #000000; stroke-width: 0.8"/>
      </g>
     </g>
     <g id="text_6">
      <!-- $\mathdefault{150}$ -->
      <g transform="translate(301.411361 319.770067) scale(0.14 -0.14)">
       <use xlink:href="#CMBX12-31" transform="scale(0.996264)"/>
       <use xlink:href="#CMBX12-35" transform="translate(56.039851 0) scale(0.996264)"/>
       <use xlink:href="#CMBX12-30" transform="translate(112.079701 0) scale(0.996264)"/>
      </g>
     </g>
    </g>
    <g id="xtick_7">
     <g id="line2d_13">
      <path d="M 359.006869 303.08419 
L 359.006869 43.956997 
" clip-path="url(#p88f4336495)" style="fill: none; stroke: #b0b0b0; stroke-width: 0.8; stroke-linecap: square"/>
     </g>
     <g id="line2d_14">
      <g>
       <use xlink:href="#m97fa212a74" x="359.006869" y="303.08419" style="stroke: #000000; stroke-width: 0.8"/>
      </g>
     </g>
     <g id="text_7">
      <!-- $\mathdefault{175}$ -->
      <g transform="translate(347.2385 319.770067) scale(0.14 -0.14)">
       <use xlink:href="#CMBX12-31" transform="scale(0.996264)"/>
       <use xlink:href="#CMBX12-37" transform="translate(56.039851 0) scale(0.996264)"/>
       <use xlink:href="#CMBX12-35" transform="translate(112.079701 0) scale(0.996264)"/>
      </g>
     </g>
    </g>
    <g id="xtick_8">
     <g id="line2d_15">
      <path d="M 404.834008 303.08419 
L 404.834008 43.956997 
" clip-path="url(#p88f4336495)" style="fill: none; stroke: #b0b0b0; stroke-width: 0.8; stroke-linecap: square"/>
     </g>
     <g id="line2d_16">
      <g>
       <use xlink:href="#m97fa212a74" x="404.834008" y="303.08419" style="stroke: #000000; stroke-width: 0.8"/>
      </g>
     </g>
     <g id="text_8">
      <!-- $\mathdefault{200}$ -->
      <g transform="translate(393.06564 319.770067) scale(0.14 -0.14)">
       <use xlink:href="#CMBX12-32" transform="scale(0.996264)"/>
       <use xlink:href="#CMBX12-30" transform="translate(56.039851 0) scale(0.996264)"/>
       <use xlink:href="#CMBX12-30" transform="translate(112.079701 0) scale(0.996264)"/>
      </g>
     </g>
    </g>
    <g id="text_9">
     <!-- Number of bands per formula unit -->
     <g transform="translate(142.323674 342.167972) scale(0.14 -0.14)">
      <defs>
       <path id="CMR17-4e" d="M 1312 4250 
C 1267 4320 1261 4320 1139 4320 
L 326 4320 
L 326 4160 
L 448 4160 
C 704 4160 819 4129 838 4122 
L 838 610 
C 838 451 838 153 326 153 
L 326 -13 
C 474 0 742 0 902 0 
C 1062 0 1331 0 1478 -13 
L 1478 153 
C 966 153 966 451 966 610 
L 966 4033 
C 1011 3995 1011 3982 1056 3919 
L 3430 76 
C 3475 0 3494 0 3526 0 
C 3590 0 3590 19 3590 139 
L 3590 3705 
C 3590 3863 3590 4160 4102 4160 
L 4102 4326 
C 3955 4320 3686 4320 3526 4320 
C 3366 4320 3098 4320 2950 4326 
L 2950 4160 
C 3462 4160 3462 3862 3462 3703 
L 3462 763 
L 1312 4250 
z
" transform="scale(0.015625)"/>
       <path id="CMR17-75" d="M 1882 2693 
L 1882 2528 
C 2259 2528 2317 2489 2317 2186 
L 2317 1032 
C 2317 500 2029 38 1555 38 
C 1030 38 986 348 986 678 
L 986 2763 
L 211 2693 
L 211 2528 
C 467 2528 640 2528 646 2274 
L 646 1058 
C 646 633 646 361 813 183 
C 896 101 1056 -64 1517 -64 
C 2061 -64 2272 377 2323 506 
L 2330 506 
L 2330 -63 
L 3091 -63 
L 3091 128 
C 2714 128 2656 166 2656 473 
L 2656 2763 
L 1882 2693 
z
" transform="scale(0.015625)"/>
       <path id="CMR17-6d" d="M 4326 1933 
C 4326 2252 4269 2790 3507 2790 
C 3072 2790 2771 2496 2656 2151 
L 2650 2151 
C 2573 2676 2195 2790 1837 2790 
C 1331 2790 1069 2400 973 2144 
L 966 2144 
L 966 2790 
L 211 2720 
L 211 2554 
C 589 2554 646 2515 646 2208 
L 646 428 
C 646 184 621 153 211 153 
L 211 -13 
C 365 0 646 0 813 0 
C 979 0 1267 0 1421 -13 
L 1421 153 
C 1011 153 986 178 986 428 
L 986 1658 
C 986 2247 1344 2688 1792 2688 
C 2266 2688 2317 2266 2317 1958 
L 2317 428 
C 2317 184 2291 153 1882 153 
L 1882 -13 
C 2035 0 2317 0 2483 0 
C 2650 0 2938 0 3091 -13 
L 3091 153 
C 2682 153 2656 178 2656 428 
L 2656 1658 
C 2656 2247 3014 2688 3462 2688 
C 3936 2688 3987 2266 3987 1958 
L 3987 428 
C 3987 184 3962 153 3552 153 
L 3552 -13 
C 3706 0 3987 0 4154 0 
C 4320 0 4608 0 4762 -13 
L 4762 153 
C 4352 153 4326 178 4326 428 
L 4326 1933 
z
" transform="scale(0.015625)"/>
       <path id="CMR17-62" d="M 960 4396 
L 198 4326 
L 198 4160 
C 576 4160 634 4122 634 3817 
L 634 -13 
L 749 -13 
L 934 441 
C 1120 141 1395 -64 1766 -64 
C 2406 -64 3053 500 3053 1370 
C 3053 2188 2477 2790 1830 2790 
C 1434 2790 1152 2579 960 2330 
L 960 4396 
z
M 973 2004 
C 973 2118 973 2138 1062 2272 
C 1312 2657 1670 2688 1792 2688 
C 1984 2688 2643 2585 2643 1376 
C 2643 108 1888 38 1734 38 
C 1536 38 1248 114 1043 486 
C 973 608 973 621 973 735 
L 973 2004 
z
" transform="scale(0.015625)"/>
       <path id="CMR17-65" d="M 2438 1472 
C 2464 1498 2464 1511 2464 1576 
C 2464 2238 2118 2816 1389 2816 
C 710 2816 173 2169 173 1383 
C 173 551 781 -64 1459 -64 
C 2176 -64 2458 607 2458 740 
C 2458 784 2419 784 2406 784 
C 2362 784 2355 771 2330 696 
C 2189 265 1837 51 1504 51 
C 1229 51 954 203 781 480 
C 582 803 582 1176 582 1472 
L 2438 1472 
z
M 589 1568 
C 634 2505 1126 2714 1382 2714 
C 1818 2714 2112 2297 2118 1568 
L 589 1568 
z
" transform="scale(0.015625)"/>
       <path id="CMR17-72" d="M 960 1497 
C 960 2112 1222 2688 1702 2688 
C 1747 2688 1792 2682 1837 2662 
C 1837 2662 1696 2617 1696 2452 
C 1696 2298 1818 2234 1914 2234 
C 1990 2234 2131 2279 2131 2458 
C 2131 2663 1926 2790 1709 2790 
C 1222 2790 1011 2317 947 2093 
L 941 2093 
L 941 2790 
L 198 2720 
L 198 2554 
C 576 2554 634 2515 634 2208 
L 634 428 
C 634 184 608 153 198 153 
L 198 -13 
C 352 0 646 0 813 0 
C 998 0 1325 0 1498 -13 
L 1498 153 
C 1037 153 960 153 960 440 
L 960 1497 
z
" transform="scale(0.015625)"/>
       <path id="CMR17-6f" d="M 2758 1356 
C 2758 2176 2163 2816 1466 2816 
C 768 2816 173 2176 173 1356 
C 173 551 768 -64 1466 -64 
C 2163 -64 2758 551 2758 1356 
z
M 1466 51 
C 1165 51 909 230 762 480 
C 602 767 582 1126 582 1408 
C 582 1677 595 2010 762 2298 
C 890 2509 1139 2714 1466 2714 
C 1754 2714 1997 2554 2150 2330 
C 2349 2029 2349 1607 2349 1408 
C 2349 1158 2336 775 2163 467 
C 1984 173 1709 51 1466 51 
z
" transform="scale(0.015625)"/>
       <path id="CMR17-66" d="M 979 2560 
L 1709 2560 
L 1709 2725 
L 966 2725 
L 966 3494 
C 966 4022 1235 4352 1510 4352 
C 1594 4352 1690 4327 1754 4282 
C 1702 4269 1568 4225 1568 4067 
C 1568 3901 1696 3850 1786 3850 
C 1875 3850 2003 3901 2003 4067 
C 2003 4308 1773 4454 1517 4454 
C 1152 4454 653 4156 653 3481 
L 653 2725 
L 141 2725 
L 141 2560 
L 653 2560 
L 653 427 
C 653 184 627 153 218 153 
L 218 -13 
C 371 0 666 0 832 0 
C 1018 0 1344 0 1517 -13 
L 1517 153 
C 1056 153 979 153 979 439 
L 979 2560 
z
" transform="scale(0.015625)"/>
       <path id="CMR17-61" d="M 2304 1653 
C 2304 2072 2304 2294 2035 2543 
C 1798 2752 1523 2816 1306 2816 
C 800 2816 435 2407 435 1971 
C 435 1728 627 1728 666 1728 
C 749 1728 896 1778 896 1954 
C 896 2112 774 2181 666 2181 
C 640 2181 608 2174 589 2168 
C 723 2592 1069 2714 1293 2714 
C 1613 2714 1965 2429 1965 1885 
L 1965 1600 
C 1587 1600 1133 1549 774 1357 
C 371 1133 256 813 256 570 
C 256 77 832 -64 1171 -64 
C 1523 -64 1850 139 1990 511 
C 2003 233 2182 -18 2464 -18 
C 2598 -18 2938 70 2938 567 
L 2938 920 
L 2822 920 
L 2822 562 
C 2822 178 2650 128 2566 128 
C 2304 128 2304 458 2304 738 
L 2304 1653 
z
M 1965 870 
C 1965 317 1568 38 1216 38 
C 896 38 646 275 646 570 
C 646 761 730 1100 1101 1305 
C 1408 1478 1760 1504 1965 1504 
L 1965 870 
z
" transform="scale(0.015625)"/>
       <path id="CMR17-6e" d="M 2656 1933 
C 2656 2259 2592 2790 1837 2790 
C 1331 2790 1069 2400 973 2144 
L 966 2144 
L 966 2790 
L 211 2720 
L 211 2554 
C 589 2554 646 2515 646 2208 
L 646 428 
C 646 184 621 153 211 153 
L 211 -13 
C 365 0 646 0 813 0 
C 979 0 1267 0 1421 -13 
L 1421 153 
C 1011 153 986 178 986 428 
L 986 1658 
C 986 2247 1344 2688 1792 2688 
C 2266 2688 2317 2266 2317 1958 
L 2317 428 
C 2317 184 2291 153 1882 153 
L 1882 -13 
C 2035 0 2317 0 2483 0 
C 2650 0 2938 0 3091 -13 
L 3091 153 
C 2682 153 2656 178 2656 428 
L 2656 1933 
z
" transform="scale(0.015625)"/>
       <path id="CMR17-64" d="M 1869 4326 
L 1869 4160 
C 2246 4160 2304 4122 2304 3820 
L 2304 2345 
C 2278 2377 2016 2790 1498 2790 
C 845 2790 211 2208 211 1364 
C 211 525 806 -64 1434 -64 
C 1978 -64 2259 337 2291 380 
L 2291 -63 
L 3066 -63 
L 3066 128 
C 2688 128 2630 166 2630 473 
L 2630 4396 
L 1869 4326 
z
M 2291 755 
C 2291 563 2176 390 2029 262 
C 1811 70 1594 38 1472 38 
C 1286 38 621 134 621 1356 
C 621 2612 1363 2688 1530 2688 
C 1824 2688 2061 2522 2208 2291 
C 2291 2157 2291 2138 2291 2023 
L 2291 755 
z
" transform="scale(0.015625)"/>
       <path id="CMR17-73" d="M 1978 2697 
C 1978 2813 1971 2819 1933 2819 
C 1907 2819 1901 2813 1824 2717 
C 1805 2691 1747 2626 1728 2601 
C 1523 2819 1235 2819 1126 2819 
C 416 2819 160 2447 160 2076 
C 160 1498 813 1365 998 1325 
C 1402 1243 1542 1217 1677 1101 
C 1760 1025 1901 884 1901 654 
C 1901 384 1747 38 1158 38 
C 602 38 403 460 288 1021 
C 269 1110 269 1117 218 1117 
C 166 1117 160 1110 160 983 
L 160 63 
C 160 -51 166 -58 205 -58 
C 237 -58 243 -51 275 0 
C 314 57 410 211 448 276 
C 576 103 800 -64 1158 -64 
C 1792 -64 2131 283 2131 784 
C 2131 1112 1958 1285 1875 1362 
C 1683 1561 1459 1606 1190 1657 
C 838 1735 390 1825 390 2217 
C 390 2383 480 2737 1126 2737 
C 1811 2737 1850 2094 1862 1888 
C 1869 1856 1901 1849 1920 1849 
C 1978 1849 1978 1869 1978 1978 
L 1978 2697 
z
" transform="scale(0.015625)"/>
       <path id="CMR17-70" d="M 1408 -1063 
C 998 -1063 973 -1037 973 -789 
L 973 402 
C 1158 134 1427 -38 1766 -38 
C 2406 -38 3053 523 3053 1388 
C 3053 2191 2496 2802 1837 2802 
C 1453 2802 1139 2592 960 2338 
L 960 2802 
L 198 2732 
L 198 2567 
C 576 2567 634 2528 634 2223 
L 634 -789 
C 634 -1031 608 -1063 198 -1063 
L 198 -1228 
C 352 -1216 634 -1216 800 -1216 
C 966 -1216 1254 -1216 1408 -1228 
L 1408 -1063 
z
M 973 2012 
C 973 2102 973 2235 1222 2471 
C 1254 2497 1472 2688 1792 2688 
C 2259 2688 2643 2108 2643 1382 
C 2643 656 2234 64 1728 64 
C 1498 64 1248 172 1056 472 
C 973 612 973 650 973 752 
L 973 2012 
z
" transform="scale(0.015625)"/>
       <path id="CMR17-6c" d="M 979 4396 
L 218 4326 
L 218 4160 
C 595 4160 653 4122 653 3817 
L 653 426 
C 653 184 627 153 218 153 
L 218 -13 
C 371 0 653 0 813 0 
C 979 0 1261 0 1414 -13 
L 1414 153 
C 1005 153 979 178 979 426 
L 979 4396 
z
" transform="scale(0.015625)"/>
       <path id="CMR17-69" d="M 992 3909 
C 992 4049 877 4170 730 4170 
C 589 4170 467 4056 467 3909 
C 467 3769 582 3648 730 3648 
C 870 3648 992 3763 992 3909 
z
M 243 2706 
L 243 2541 
C 602 2541 653 2502 653 2197 
L 653 427 
C 653 184 627 153 218 153 
L 218 -13 
C 371 0 646 0 806 0 
C 960 0 1222 0 1370 -13 
L 1370 153 
C 992 153 979 191 979 420 
L 979 2776 
L 243 2706 
z
" transform="scale(0.015625)"/>
       <path id="CMR17-74" d="M 966 2560 
L 1862 2560 
L 1862 2725 
L 966 2725 
L 966 3904 
L 851 3904 
C 838 3245 614 2668 70 2668 
L 70 2560 
L 627 2560 
L 627 771 
C 627 650 627 -64 1370 -64 
C 1747 -64 1965 306 1965 777 
L 1965 1140 
L 1850 1140 
L 1850 783 
C 1850 344 1677 51 1408 51 
C 1222 51 966 178 966 758 
L 966 2560 
z
" transform="scale(0.015625)"/>
      </defs>
      <use xlink:href="#CMR17-4e" transform="scale(0.996264)"/>
      <use xlink:href="#CMR17-75" transform="translate(69.07243 0) scale(0.996264)"/>
      <use xlink:href="#CMR17-6d" transform="translate(119.9678 0) scale(0.996264)"/>
      <use xlink:href="#CMR17-62" transform="translate(194.284936 0) scale(0.996264)"/>
      <use xlink:href="#CMR17-65" transform="translate(247.782744 0) scale(0.996264)"/>
      <use xlink:href="#CMR17-72" transform="translate(288.268404 0) scale(0.996264)"/>
      <use xlink:href="#CMR17-6f" transform="translate(353.625139 0) scale(0.996264)"/>
      <use xlink:href="#CMR17-66" transform="translate(399.315616 0) scale(0.996264)"/>
      <use xlink:href="#CMR17-62" transform="translate(456.865095 0) scale(0.996264)"/>
      <use xlink:href="#CMR17-61" transform="translate(507.760464 0) scale(0.996264)"/>
      <use xlink:href="#CMR17-6e" transform="translate(553.450941 0) scale(0.996264)"/>
      <use xlink:href="#CMR17-64" transform="translate(604.346311 0) scale(0.996264)"/>
      <use xlink:href="#CMR17-73" transform="translate(655.241681 0) scale(0.996264)"/>
      <use xlink:href="#CMR17-70" transform="translate(721.118985 0) scale(0.996264)"/>
      <use xlink:href="#CMR17-65" transform="translate(774.616793 0) scale(0.996264)"/>
      <use xlink:href="#CMR17-72" transform="translate(815.102454 0) scale(0.996264)"/>
      <use xlink:href="#CMR17-66" transform="translate(880.459188 0) scale(0.996264)"/>
      <use xlink:href="#CMR17-6f" transform="translate(907.9327 0) scale(0.996264)"/>
      <use xlink:href="#CMR17-72" transform="translate(953.623178 0) scale(0.996264)"/>
      <use xlink:href="#CMR17-6d" transform="translate(988.903945 0) scale(0.996264)"/>
      <use xlink:href="#CMR17-75" transform="translate(1063.221081 0) scale(0.996264)"/>
      <use xlink:href="#CMR17-6c" transform="translate(1114.116451 0) scale(0.996264)"/>
      <use xlink:href="#CMR17-61" transform="translate(1138.98751 0) scale(0.996264)"/>
      <use xlink:href="#CMR17-75" transform="translate(1214.753953 0) scale(0.996264)"/>
      <use xlink:href="#CMR17-6e" transform="translate(1265.649323 0) scale(0.996264)"/>
      <use xlink:href="#CMR17-69" transform="translate(1316.544693 0) scale(0.996264)"/>
      <use xlink:href="#CMR17-74" transform="translate(1341.415751 0) scale(0.996264)"/>
     </g>
    </g>
   </g>
   <g id="matplotlib.axis_2">
    <g id="ytick_1">
     <g id="line2d_17">
      <path d="M 73.962061 287.903116 
L 416.749065 287.903116 
" clip-path="url(#p88f4336495)" style="fill: none; stroke: #b0b0b0; stroke-width: 0.8; stroke-linecap: square"/>
     </g>
     <g id="line2d_18">
      <defs>
       <path id="m8bbbea710e" d="M 0 0 
L -3.5 0 
" style="stroke: #000000; stroke-width: 0.8"/>
      </defs>
      <g>
       <use xlink:href="#m8bbbea710e" x="73.962061" y="287.903116" style="stroke: #000000; stroke-width: 0.8"/>
      </g>
     </g>
     <g id="text_10">
      <!-- $\mathdefault{−0.2}$ -->
      <g transform="translate(34.34004 292.746054) scale(0.14 -0.14)">
       <defs>
        <path id="CMBSY10-0" d="M 4813 1408 
C 4909 1408 5101 1408 5101 1600 
C 5101 1798 4915 1798 4813 1798 
L 902 1798 
C 806 1798 614 1798 614 1606 
C 614 1408 800 1408 902 1408 
L 4813 1408 
z
" transform="scale(0.015625)"/>
        <path id="CMMIB10-3a" d="M 1517 497 
C 1517 771 1293 994 1018 994 
C 742 994 518 771 518 497 
C 518 223 742 0 1018 0 
C 1293 0 1517 223 1517 497 
z
" transform="scale(0.015625)"/>
       </defs>
       <use xlink:href="#CMBSY10-0" transform="scale(0.996264)"/>
       <use xlink:href="#CMBX12-30" transform="translate(89.109808 0) scale(0.996264)"/>
       <use xlink:href="#CMMIB10-3a" transform="translate(145.149659 0) scale(0.996264)"/>
       <use xlink:href="#CMBX12-32" transform="translate(176.97459 0) scale(0.996264)"/>
      </g>
     </g>
    </g>
    <g id="ytick_2">
     <g id="line2d_19">
      <path d="M 73.962061 253.053671 
L 416.749065 253.053671 
" clip-path="url(#p88f4336495)" style="fill: none; stroke: #b0b0b0; stroke-width: 0.8; stroke-linecap: square"/>
     </g>
     <g id="line2d_20">
      <g>
       <use xlink:href="#m8bbbea710e" x="73.962061" y="253.053671" style="stroke: #000000; stroke-width: 0.8"/>
      </g>
     </g>
     <g id="text_11">
      <!-- $\mathdefault{−0.1}$ -->
      <g transform="translate(34.34004 257.896609) scale(0.14 -0.14)">
       <use xlink:href="#CMBSY10-0" transform="scale(0.996264)"/>
       <use xlink:href="#CMBX12-30" transform="translate(89.109808 0) scale(0.996264)"/>
       <use xlink:href="#CMMIB10-3a" transform="translate(145.149659 0) scale(0.996264)"/>
       <use xlink:href="#CMBX12-31" transform="translate(176.97459 0) scale(0.996264)"/>
      </g>
     </g>
    </g>
    <g id="ytick_3">
     <g id="line2d_21">
      <path d="M 73.962061 218.204225 
L 416.749065 218.204225 
" clip-path="url(#p88f4336495)" style="fill: none; stroke: #b0b0b0; stroke-width: 0.8; stroke-linecap: square"/>
     </g>
     <g id="line2d_22">
      <g>
       <use xlink:href="#m8bbbea710e" x="73.962061" y="218.204225" style="stroke: #000000; stroke-width: 0.8"/>
      </g>
     </g>
     <g id="text_12">
      <!-- $\mathdefault{0.0}$ -->
      <g transform="translate(46.815413 223.047163) scale(0.14 -0.14)">
       <use xlink:href="#CMBX12-30" transform="scale(0.996264)"/>
       <use xlink:href="#CMMIB10-3a" transform="translate(56.039851 0) scale(0.996264)"/>
       <use xlink:href="#CMBX12-30" transform="translate(87.864782 0) scale(0.996264)"/>
      </g>
     </g>
    </g>
    <g id="ytick_4">
     <g id="line2d_23">
      <path d="M 73.962061 183.354779 
L 416.749065 183.354779 
" clip-path="url(#p88f4336495)" style="fill: none; stroke: #b0b0b0; stroke-width: 0.8; stroke-linecap: square"/>
     </g>
     <g id="line2d_24">
      <g>
       <use xlink:href="#m8bbbea710e" x="73.962061" y="183.354779" style="stroke: #000000; stroke-width: 0.8"/>
      </g>
     </g>
     <g id="text_13">
      <!-- $\mathdefault{0.1}$ -->
      <g transform="translate(46.815413 188.197718) scale(0.14 -0.14)">
       <use xlink:href="#CMBX12-30" transform="scale(0.996264)"/>
       <use xlink:href="#CMMIB10-3a" transform="translate(56.039851 0) scale(0.996264)"/>
       <use xlink:href="#CMBX12-31" transform="translate(87.864782 0) scale(0.996264)"/>
      </g>
     </g>
    </g>
    <g id="ytick_5">
     <g id="line2d_25">
      <path d="M 73.962061 148.505334 
L 416.749065 148.505334 
" clip-path="url(#p88f4336495)" style="fill: none; stroke: #b0b0b0; stroke-width: 0.8; stroke-linecap: square"/>
     </g>
     <g id="line2d_26">
      <g>
       <use xlink:href="#m8bbbea710e" x="73.962061" y="148.505334" style="stroke: #000000; stroke-width: 0.8"/>
      </g>
     </g>
     <g id="text_14">
      <!-- $\mathdefault{0.2}$ -->
      <g transform="translate(46.815413 153.348272) scale(0.14 -0.14)">
       <use xlink:href="#CMBX12-30" transform="scale(0.996264)"/>
       <use xlink:href="#CMMIB10-3a" transform="translate(56.039851 0) scale(0.996264)"/>
       <use xlink:href="#CMBX12-32" transform="translate(87.864782 0) scale(0.996264)"/>
      </g>
     </g>
    </g>
    <g id="ytick_6">
     <g id="line2d_27">
      <path d="M 73.962061 113.655888 
L 416.749065 113.655888 
" clip-path="url(#p88f4336495)" style="fill: none; stroke: #b0b0b0; stroke-width: 0.8; stroke-linecap: square"/>
     </g>
     <g id="line2d_28">
      <g>
       <use xlink:href="#m8bbbea710e" x="73.962061" y="113.655888" style="stroke: #000000; stroke-width: 0.8"/>
      </g>
     </g>
     <g id="text_15">
      <!-- $\mathdefault{0.3}$ -->
      <g transform="translate(46.815413 118.498826) scale(0.14 -0.14)">
       <defs>
        <path id="CMBX12-33" d="M 1670 2112 
C 2387 2112 2387 1454 2387 1151 
C 2387 866 2387 196 1696 196 
C 1562 196 1139 196 832 424 
C 1107 481 1203 678 1203 868 
C 1203 1128 1018 1312 755 1312 
C 486 1312 301 1128 301 862 
C 301 278 941 -64 1728 -64 
C 2784 -64 3290 513 3290 1147 
C 3290 1459 3130 2061 2138 2232 
C 2701 2406 3091 2804 3091 3310 
C 3091 3792 2630 4197 1741 4197 
C 1024 4197 499 3818 499 3298 
C 499 2977 749 2874 915 2874 
C 1101 2874 1325 2996 1325 3292 
C 1325 3441 1261 3659 960 3704 
C 1229 3968 1664 3968 1702 3968 
C 2272 3968 2272 3522 2272 3329 
C 2272 3135 2246 2837 2042 2573 
C 1875 2352 1709 2340 1466 2340 
C 1389 2321 1261 2321 1235 2309 
C 1197 2290 1197 2245 1197 2220 
C 1197 2112 1235 2112 1363 2112 
L 1670 2112 
z
" transform="scale(0.015625)"/>
       </defs>
       <use xlink:href="#CMBX12-30" transform="scale(0.996264)"/>
       <use xlink:href="#CMMIB10-3a" transform="translate(56.039851 0) scale(0.996264)"/>
       <use xlink:href="#CMBX12-33" transform="translate(87.864782 0) scale(0.996264)"/>
      </g>
     </g>
    </g>
    <g id="ytick_7">
     <g id="line2d_29">
      <path d="M 73.962061 78.806442 
L 416.749065 78.806442 
" clip-path="url(#p88f4336495)" style="fill: none; stroke: #b0b0b0; stroke-width: 0.8; stroke-linecap: square"/>
     </g>
     <g id="line2d_30">
      <g>
       <use xlink:href="#m8bbbea710e" x="73.962061" y="78.806442" style="stroke: #000000; stroke-width: 0.8"/>
      </g>
     </g>
     <g id="text_16">
      <!-- $\mathdefault{0.4}$ -->
      <g transform="translate(46.815413 83.649381) scale(0.14 -0.14)">
       <defs>
        <path id="CMBX12-34" d="M 2771 1006 
L 3392 1006 
L 3392 1280 
L 2771 1280 
L 2771 4007 
C 2771 4166 2765 4192 2605 4192 
C 2490 4192 2477 4192 2400 4096 
L 198 1280 
L 198 1006 
L 2016 1006 
L 2016 267 
L 1318 267 
L 1318 0 
C 1504 0 2138 0 2368 0 
C 2586 0 3219 0 3392 -6 
L 3392 267 
L 2771 267 
L 2771 1006 
z
M 2074 3302 
L 2074 1280 
L 493 1280 
L 2074 3302 
z
" transform="scale(0.015625)"/>
       </defs>
       <use xlink:href="#CMBX12-30" transform="scale(0.996264)"/>
       <use xlink:href="#CMMIB10-3a" transform="translate(56.039851 0) scale(0.996264)"/>
       <use xlink:href="#CMBX12-34" transform="translate(87.864782 0) scale(0.996264)"/>
      </g>
     </g>
    </g>
    <g id="ytick_8">
     <g id="line2d_31">
      <path d="M 73.962061 43.956997 
L 416.749065 43.956997 
" clip-path="url(#p88f4336495)" style="fill: none; stroke: #b0b0b0; stroke-width: 0.8; stroke-linecap: square"/>
     </g>
     <g id="line2d_32">
      <g>
       <use xlink:href="#m8bbbea710e" x="73.962061" y="43.956997" style="stroke: #000000; stroke-width: 0.8"/>
      </g>
     </g>
     <g id="text_17">
      <!-- $\mathdefault{0.5}$ -->
      <g transform="translate(46.815413 48.799935) scale(0.14 -0.14)">
       <use xlink:href="#CMBX12-30" transform="scale(0.996264)"/>
       <use xlink:href="#CMMIB10-3a" transform="translate(56.039851 0) scale(0.996264)"/>
       <use xlink:href="#CMBX12-35" transform="translate(87.864782 0) scale(0.996264)"/>
      </g>
     </g>
    </g>
    <g id="text_18">
     <!-- \unboldmath $E_{x}^\mathrm{SOC}-E_{z}^\mathrm{SOC}$ \textbf{[meV]} -->
     <g transform="translate(26.853116 236.773036) rotate(-90) scale(0.14 -0.14)">
      <defs>
       <path id="CMMI12-45" d="M 4448 1489 
C 4454 1508 4474 1554 4474 1579 
C 4474 1611 4448 1643 4410 1643 
C 4384 1643 4371 1637 4352 1617 
C 4339 1611 4339 1598 4282 1469 
C 3904 570 3629 185 2605 185 
L 1670 185 
C 1581 185 1568 185 1530 192 
C 1459 198 1453 211 1453 262 
C 1453 307 1466 345 1478 403 
L 1920 2176 
L 2554 2176 
C 3053 2176 3091 2066 3091 1874 
C 3091 1810 3091 1752 3046 1560 
C 3034 1534 3027 1508 3027 1489 
C 3027 1444 3059 1425 3098 1425 
C 3155 1425 3162 1469 3187 1559 
L 3552 3042 
C 3552 3073 3526 3105 3488 3105 
C 3430 3105 3424 3080 3398 2990 
C 3270 2501 3142 2361 2573 2361 
L 1965 2361 
L 2362 3930 
C 2419 4154 2432 4154 2694 4154 
L 3610 4154 
C 4397 4154 4557 3943 4557 3458 
C 4557 3451 4557 3273 4531 3062 
C 4525 3036 4518 2998 4518 2985 
C 4518 2934 4550 2915 4589 2915 
C 4634 2915 4659 2941 4672 3055 
L 4806 4174 
C 4806 4195 4819 4263 4819 4277 
C 4819 4352 4762 4352 4646 4352 
L 1523 4352 
C 1402 4352 1338 4352 1338 4229 
C 1338 4154 1382 4154 1491 4154 
C 1888 4154 1888 4114 1888 4052 
C 1888 4020 1882 3994 1862 3924 
L 998 473 
C 941 249 928 185 480 185 
C 358 185 294 185 294 70 
C 294 0 333 0 461 0 
L 3674 0 
C 3814 0 3821 6 3866 110 
L 4448 1489 
z
" transform="scale(0.015625)"/>
       <path id="CMR17-53" d="M 2803 4290 
C 2803 4404 2797 4411 2758 4411 
C 2720 4411 2707 4385 2682 4328 
L 2490 3907 
C 2246 4257 1875 4416 1472 4416 
C 819 4416 294 3901 294 3253 
C 294 3056 339 2776 557 2510 
C 794 2218 1018 2167 1530 2033 
C 1722 1982 2042 1899 2106 1874 
C 2470 1722 2662 1341 2662 985 
C 2662 527 2336 38 1779 38 
C 1094 38 454 419 410 1311 
C 403 1413 397 1419 352 1419 
C 301 1419 294 1413 294 1285 
L 294 -1 
C 294 -115 301 -122 339 -122 
C 384 -122 397 -90 486 108 
C 493 127 493 140 614 381 
C 934 -39 1472 -128 1779 -128 
C 2477 -128 2970 451 2970 1124 
C 2970 1454 2848 1708 2778 1823 
C 2509 2230 2221 2306 1914 2382 
C 1869 2402 1856 2402 1498 2490 
C 1152 2579 1005 2624 845 2796 
C 666 2992 602 3196 602 3399 
C 602 3812 934 4263 1478 4263 
C 2157 4263 2579 3786 2675 2993 
C 2694 2878 2701 2872 2746 2872 
C 2803 2872 2803 2891 2803 2999 
L 2803 4290 
z
" transform="scale(0.015625)"/>
       <path id="CMR17-4f" d="M 4307 2135 
C 4307 3437 3366 4416 2304 4416 
C 1216 4416 294 3424 294 2135 
C 294 845 1229 -128 2298 -128 
C 3392 -128 4307 864 4307 2135 
z
M 2304 -13 
C 1574 -13 781 711 781 2217 
C 781 3716 1651 4301 2298 4301 
C 2976 4301 3821 3698 3821 2217 
C 3821 686 3008 -13 2304 -13 
z
" transform="scale(0.015625)"/>
       <path id="CMR17-43" d="M 3974 4289 
C 3974 4403 3968 4410 3930 4410 
C 3904 4410 3898 4403 3853 4327 
L 3571 3792 
C 3258 4187 2874 4416 2381 4416 
C 1286 4416 294 3456 294 2148 
C 294 826 1286 -128 2387 -128 
C 3366 -128 3974 730 3974 1461 
C 3974 1524 3974 1550 3917 1550 
C 3866 1550 3866 1531 3859 1474 
C 3808 585 3168 38 2477 38 
C 1824 38 781 495 781 2147 
C 781 3805 1843 4250 2464 4250 
C 3187 4250 3712 3628 3834 2745 
C 3846 2668 3846 2655 3904 2655 
C 3974 2655 3974 2668 3974 2783 
L 3974 4289 
z
" transform="scale(0.015625)"/>
       <path id="CMMI12-78" d="M 3034 2606 
C 2829 2567 2752 2414 2752 2293 
C 2752 2139 2874 2088 2963 2088 
C 3155 2088 3290 2254 3290 2427 
C 3290 2695 2982 2816 2714 2816 
C 2323 2816 2106 2433 2048 2312 
C 1901 2816 1504 2816 1389 2816 
C 736 2816 390 1980 390 1839 
C 390 1814 416 1782 461 1782 
C 512 1782 525 1820 538 1846 
C 755 2555 1184 2689 1370 2689 
C 1658 2689 1715 2420 1715 2267 
C 1715 2127 1677 1980 1600 1673 
L 1382 798 
C 1286 415 1101 64 762 64 
C 730 64 570 64 435 147 
C 666 192 717 383 717 460 
C 717 588 621 664 499 664 
C 346 664 179 530 179 326 
C 179 57 480 -64 755 -64 
C 1062 -64 1280 179 1414 441 
C 1517 64 1837 -64 2074 -64 
C 2726 -64 3072 773 3072 913 
C 3072 945 3046 971 3008 971 
C 2950 971 2944 939 2925 888 
C 2752 326 2381 64 2093 64 
C 1869 64 1747 230 1747 492 
C 1747 632 1773 734 1875 1156 
L 2099 2024 
C 2195 2408 2413 2689 2707 2689 
C 2720 2689 2899 2689 3034 2606 
z
" transform="scale(0.015625)"/>
       <path id="CMSY10-0" d="M 4218 1472 
C 4326 1472 4442 1472 4442 1600 
C 4442 1728 4326 1728 4218 1728 
L 755 1728 
C 646 1728 531 1728 531 1600 
C 531 1472 646 1472 755 1472 
L 4218 1472 
z
" transform="scale(0.015625)"/>
       <path id="CMMI12-7a" d="M 813 486 
C 1088 803 1312 1004 1632 1296 
C 2016 1632 2182 1793 2272 1891 
C 2720 2338 2944 2713 2944 2764 
C 2944 2816 2893 2816 2880 2816 
C 2835 2816 2822 2793 2790 2750 
C 2630 2494 2477 2367 2310 2367 
C 2176 2367 2106 2421 1984 2565 
C 1850 2715 1741 2816 1555 2816 
C 1088 2816 806 2257 806 2128 
C 806 2108 813 2068 870 2068 
C 922 2068 928 2091 947 2133 
C 1056 2372 1363 2414 1485 2414 
C 1619 2414 1747 2376 1882 2327 
C 2125 2240 2227 2240 2291 2240 
C 2336 2240 2362 2240 2394 2246 
C 2182 1994 1837 1683 1549 1418 
L 902 816 
C 512 415 275 33 275 -12 
C 275 -51 307 -64 346 -64 
C 384 -64 390 -57 435 14 
C 538 163 742 384 979 384 
C 1114 384 1178 342 1306 193 
C 1427 61 1536 -64 1741 -64 
C 2368 -64 2726 732 2726 876 
C 2726 903 2720 942 2656 942 
C 2605 942 2598 917 2579 855 
C 2438 488 2061 338 1811 338 
C 1677 338 1549 376 1414 425 
C 1158 512 1088 512 1005 512 
C 941 512 870 512 813 486 
z
" transform="scale(0.015625)"/>
       <path id="CMBX12-5b" d="M 1837 -1600 
L 1837 -1250 
L 1171 -1250 
L 1171 4416 
L 1837 4416 
L 1837 4766 
L 819 4766 
L 819 -1600 
L 1837 -1600 
z
" transform="scale(0.015625)"/>
       <path id="CMBX12-6d" d="M 5402 1924 
C 5402 2506 5152 2834 4435 2834 
C 3789 2834 3488 2407 3386 2206 
C 3283 2740 2848 2834 2438 2834 
C 1824 2834 1491 2445 1357 2143 
L 1350 2143 
L 1350 2816 
L 269 2816 
L 269 2517 
C 666 2517 710 2517 710 2270 
L 710 260 
L 269 260 
L 269 -13 
C 416 0 877 0 1056 0 
C 1235 0 1702 0 1850 -13 
L 1850 260 
L 1408 260 
L 1408 1607 
C 1408 2296 1926 2624 2330 2624 
C 2566 2624 2707 2485 2707 1993 
L 2707 260 
L 2266 260 
L 2266 -13 
C 2413 0 2874 0 3053 0 
C 3232 0 3699 0 3846 -13 
L 3846 260 
L 3405 260 
L 3405 1607 
C 3405 2296 3923 2624 4326 2624 
C 4563 2624 4704 2485 4704 1993 
L 4704 260 
L 4262 260 
L 4262 -13 
C 4410 0 4870 0 5050 0 
C 5229 0 5696 0 5843 -13 
L 5843 260 
L 5402 260 
L 5402 1924 
z
" transform="scale(0.015625)"/>
       <path id="CMBX12-65" d="M 2893 1408 
C 3040 1408 3078 1408 3078 1567 
C 3078 1758 3034 2233 2739 2532 
C 2470 2798 2112 2880 1741 2880 
C 742 2880 198 2233 198 1434 
C 198 545 858 -32 1824 -32 
C 2790 -32 3078 640 3078 748 
C 3078 843 2982 843 2944 843 
C 2842 843 2835 824 2797 742 
C 2630 330 2208 197 1901 197 
C 973 197 966 1053 966 1408 
L 2893 1408 
z
M 966 1593 
C 979 1852 986 2100 1120 2328 
C 1242 2531 1466 2670 1741 2670 
C 2426 2670 2483 1909 2490 1593 
L 966 1593 
z
" transform="scale(0.015625)"/>
       <path id="CMBX12-56" d="M 4634 3951 
C 4672 4033 4698 4096 5171 4096 
L 5280 4096 
L 5280 4363 
C 5082 4363 4621 4363 4570 4363 
C 4390 4363 3936 4363 3789 4370 
L 3789 4096 
C 3930 4096 4166 4096 4346 4026 
L 4314 3938 
L 3002 975 
L 1619 4096 
L 2214 4096 
L 2214 4363 
C 2010 4363 1395 4363 1152 4363 
C 947 4363 314 4363 154 4370 
L 154 4096 
L 730 4096 
L 2496 100 
C 2554 -26 2611 -32 2714 -32 
C 2816 -32 2880 -32 2938 100 
L 4634 3951 
z
" transform="scale(0.015625)"/>
       <path id="CMBX12-5d" d="M 1171 4766 
L 154 4766 
L 154 4416 
L 819 4416 
L 819 -1250 
L 154 -1250 
L 154 -1600 
L 1171 -1600 
L 1171 4766 
z
" transform="scale(0.015625)"/>
      </defs>
      <use xlink:href="#CMMI12-45" transform="scale(0.996264)"/>
      <use xlink:href="#CMR17-53" transform="translate(78.051636 36.153639) scale(0.697382)"/>
      <use xlink:href="#CMR17-4f" transform="translate(113.678245 36.153639) scale(0.697382)"/>
      <use xlink:href="#CMR17-43" transform="translate(163.878376 36.153639) scale(0.697382)"/>
      <use xlink:href="#CMMI12-78" transform="translate(72.211218 -24.62935) scale(0.697382)"/>
      <use xlink:href="#CMSY10-0" transform="translate(233.07242 0) scale(0.996264)"/>
      <use xlink:href="#CMMI12-45" transform="translate(332.699095 0) scale(0.996264)"/>
      <use xlink:href="#CMR17-53" transform="translate(410.750731 36.153639) scale(0.697382)"/>
      <use xlink:href="#CMR17-4f" transform="translate(446.377339 36.153639) scale(0.697382)"/>
      <use xlink:href="#CMR17-43" transform="translate(496.577471 36.153639) scale(0.697382)"/>
      <use xlink:href="#CMMI12-7a" transform="translate(404.910313 -24.62935) scale(0.697382)"/>
      <use xlink:href="#CMBX12-5b" transform="translate(573.708274 0) scale(0.996264)"/>
      <use xlink:href="#CMBX12-6d" transform="translate(604.841524 0) scale(0.996264)"/>
      <use xlink:href="#CMBX12-65" transform="translate(698.241275 0) scale(0.996264)"/>
      <use xlink:href="#CMBX12-56" transform="translate(749.380543 0) scale(0.996264)"/>
      <use xlink:href="#CMBX12-5d" transform="translate(834.016937 0) scale(0.996264)"/>
     </g>
    </g>
   </g>
   <g id="line2d_33">
    <path d="M 89.543289 202.913625 
L 93.20946 188.074293 
L 96.875631 199.007125 
L 100.541802 212.795272 
L 104.207973 141.511465 
L 107.874145 157.298312 
L 111.540316 285.283468 
L 115.206487 269.31797 
L 118.872658 210.294755 
L 122.538829 175.640114 
L 126.205 82.981268 
L 129.871172 84.498812 
L 133.537343 113.732873 
L 137.203514 109.964971 
L 140.869685 133.599483 
L 144.535856 146.077638 
L 148.202027 165.374473 
L 151.868198 195.120337 
L 155.53437 185.315812 
L 159.200541 192.979496 
L 162.866712 216.055986 
L 166.532883 210.489039 
L 170.199054 209.054044 
L 173.865225 206.882621 
L 177.531397 207.576376 
L 181.197568 202.011788 
L 184.863739 206.14679 
L 188.52991 210.340053 
L 192.196081 207.97763 
L 195.862252 214.835615 
L 199.528424 220.759086 
L 203.194595 222.446573 
L 206.860766 223.998596 
L 210.526937 233.994794 
L 214.193108 236.559246 
L 217.859279 233.752049 
L 221.52545 229.840509 
L 225.191622 220.774072 
L 228.857793 218.016432 
L 232.523964 219.61965 
L 236.190135 219.87905 
L 239.856306 216.376955 
L 243.522477 217.022727 
L 247.188649 216.921761 
L 250.85482 221.089863 
L 254.520991 222.873184 
L 258.187162 221.541785 
L 261.853333 220.897747 
L 265.519504 220.469737 
L 269.185675 216.584327 
L 272.851847 212.476557 
L 276.518018 214.30908 
L 280.184189 214.696188 
L 283.85036 214.237933 
L 287.516531 216.503766 
L 291.182702 222.503104 
L 294.848874 229.320563 
L 298.515045 231.77899 
L 302.181216 231.658351 
L 305.847387 234.027801 
L 309.513558 233.856481 
L 313.179729 235.008834 
L 316.845901 234.417854 
L 320.512072 232.757193 
L 324.178243 232.653573 
L 327.844414 232.728699 
L 331.510585 230.859624 
L 335.176756 229.673392 
L 338.842927 229.446676 
L 342.509099 226.120368 
L 346.17527 226.373371 
L 349.841441 227.235474 
L 353.507612 229.470336 
L 357.173783 230.888751 
L 360.839954 232.771847 
L 364.506126 232.737716 
L 368.172297 231.155119 
L 371.838468 231.60109 
L 375.504639 231.557412 
L 379.17081 231.59297 
L 382.836981 228.064888 
L 386.503152 226.790719 
L 390.169324 226.406766 
L 393.835495 227.199729 
L 397.501666 228.691481 
L 401.167837 229.393598 
" clip-path="url(#p88f4336495)" style="fill: none; stroke: #1f77b4; stroke-width: 1.5; stroke-linecap: square"/>
   </g>
   <g id="line2d_34">
    <path d="M 89.543289 200.917352 
L 90.765346 189.503649 
L 91.987403 181.001367 
L 93.20946 195.423423 
L 94.431517 203.028838 
L 95.653574 215.64341 
L 96.875631 199.00754 
L 98.097688 186.459147 
L 99.319745 199.112527 
L 100.541802 212.796817 
L 101.763859 160.923403 
L 102.985916 155.701889 
L 104.207973 170.123337 
L 105.43003 168.470861 
L 106.652088 175.239005 
L 107.874145 184.136769 
L 109.096202 234.958131 
L 110.318259 274.470364 
L 111.540316 285.003446 
L 112.762373 291.739638 
L 113.98443 279.091504 
L 115.206487 268.25417 
L 116.428544 230.997299 
L 117.650601 211.519904 
L 118.872658 210.598567 
L 120.094715 208.203938 
L 121.316772 199.641933 
L 122.538829 176.177025 
L 123.760886 137.010089 
L 124.982943 99.573178 
L 126.205 87.567505 
L 127.427057 72.444404 
L 128.649114 64.848582 
L 129.871172 79.232429 
L 131.093229 102.994507 
L 132.315286 100.103206 
L 133.537343 115.909511 
L 134.7594 110.331037 
L 135.981457 113.320125 
L 137.203514 111.451327 
L 138.425571 106.150488 
L 139.647628 120.38248 
L 140.869685 134.5702 
L 142.091742 134.99696 
L 143.313799 139.225021 
L 144.535856 142.782038 
L 145.757913 149.091593 
L 146.97997 157.365312 
L 148.202027 166.020668 
L 149.424084 174.851463 
L 150.646141 186.570853 
L 151.868198 195.179051 
L 153.090256 191.930627 
L 154.312313 183.854583 
L 155.53437 182.487566 
L 156.756427 183.927653 
L 157.978484 190.229885 
L 159.200541 193.209631 
L 160.422598 202.554733 
L 161.644655 210.697799 
L 162.866712 215.930722 
L 164.088769 211.877994 
L 165.310826 210.755043 
L 166.532883 211.939432 
L 167.75494 208.842603 
L 168.976997 207.211572 
L 170.199054 208.062367 
L 171.421111 207.418516 
L 172.643168 207.020837 
L 173.865225 205.635112 
L 175.087282 204.702118 
L 176.30934 208.167882 
L 177.531397 207.416544 
L 178.753454 207.386571 
L 179.975511 207.067386 
L 181.197568 206.624143 
L 182.419625 203.357366 
L 183.641682 203.272609 
L 184.863739 205.780421 
L 186.085796 209.695669 
L 187.307853 210.993227 
L 188.52991 210.902551 
L 189.751967 209.506266 
L 190.974024 206.565166 
" clip-path="url(#p88f4336495)" style="fill: none; stroke: #ff7f0e; stroke-width: 1.5; stroke-linecap: square"/>
   </g>
   <g id="line2d_35">
    <path d="M 89.543289 221.59651 
L 90.765346 222.83169 
L 91.987403 226.328337 
L 93.20946 233.645756 
L 94.431517 232.715131 
L 95.653574 229.569314 
L 96.875631 229.599369 
L 98.097688 229.801041 
L 99.319745 230.533536 
L 100.541802 231.460485 
L 101.763859 231.824684 
L 102.985916 232.414673 
L 104.207973 232.574214 
L 105.43003 232.657021 
L 106.652088 232.376693 
L 107.874145 231.995768 
L 109.096202 231.750446 
L 110.318259 231.895933 
L 111.540316 231.760013 
L 112.762373 231.695489 
L 113.98443 232.133819 
L 115.206487 232.124938 
L 116.428544 232.420718 
L 117.650601 232.496691 
L 118.872658 232.429907 
L 120.094715 232.394912 
L 121.316772 232.239324 
L 122.538829 232.204194 
L 123.760886 232.86668 
L 124.982943 232.810814 
L 126.205 233.006967 
L 127.427057 232.622044 
L 128.649114 232.486311 
L 129.871172 232.379717 
L 131.093229 232.374404 
L 132.315286 232.086405 
L 133.537343 232.102375 
L 134.7594 231.938829 
L 135.981457 231.85274 
L 137.203514 231.916333 
L 138.425571 231.928986 
L 139.647628 231.998609 
L 140.869685 231.960192 
L 142.091742 231.961321 
L 143.313799 231.95692 
L 144.535856 232.01827 
L 145.757913 232.008322 
L 146.97997 231.982855 
L 148.202027 232.032173 
L 149.424084 232.05424 
L 150.646141 232.036104 
L 151.868198 232.056949 
L 153.090256 232.079829 
L 154.312313 232.054163 
L 155.53437 232.023974 
L 156.756427 232.024195 
L 157.978484 232.043659 
L 159.200541 232.094366 
L 160.422598 232.153147 
L 161.644655 232.073246 
L 162.866712 232.069917 
L 164.088769 232.063743 
L 165.310826 232.046999 
L 166.532883 232.063517 
L 167.75494 232.04781 
L 168.976997 232.04978 
L 170.199054 232.02863 
L 171.421111 232.044647 
L 172.643168 232.091251 
L 173.865225 232.044866 
L 175.087282 232.05297 
L 176.30934 231.966643 
L 177.531397 231.938819 
L 178.753454 231.964401 
L 179.975511 232.077734 
L 181.197568 232.089952 
L 182.419625 232.137093 
L 183.641682 232.080165 
L 184.863739 232.098208 
L 186.085796 232.124536 
L 187.307853 232.109881 
L 188.52991 232.110909 
L 189.751967 232.128803 
L 190.974024 232.154787 
" clip-path="url(#p88f4336495)" style="fill: none; stroke: #2ca02c; stroke-width: 1.5; stroke-linecap: square"/>
   </g>
   <g id="LineCollection_1">
    <path d="M 102.374888 291.739638 
L 102.374888 64.848582 
" clip-path="url(#p88f4336495)" style="fill: none; stroke-dasharray: 5.55,2.4; stroke-dashoffset: 0; stroke: #000000; stroke-width: 1.5"/>
    <path d="M 113.373401 291.739638 
L 113.373401 64.848582 
" clip-path="url(#p88f4336495)" style="fill: none; stroke-dasharray: 5.55,2.4; stroke-dashoffset: 0; stroke: #000000; stroke-width: 1.5"/>
   </g>
   <g id="patch_3">
    <path d="M 73.962061 303.08419 
L 73.962061 43.956997 
" style="fill: none; stroke: #000000; stroke-width: 1.75; stroke-linejoin: miter; stroke-linecap: square"/>
   </g>
   <g id="patch_4">
    <path d="M 416.749065 303.08419 
L 416.749065 43.956997 
" style="fill: none; stroke: #000000; stroke-width: 1.75; stroke-linejoin: miter; stroke-linecap: square"/>
   </g>
   <g id="patch_5">
    <path d="M 73.962061 303.08419 
L 416.749065 303.08419 
" style="fill: none; stroke: #000000; stroke-width: 1.75; stroke-linejoin: miter; stroke-linecap: square"/>
   </g>
   <g id="patch_6">
    <path d="M 73.962061 43.956997 
L 416.749065 43.956997 
" style="fill: none; stroke: #000000; stroke-width: 1.75; stroke-linejoin: miter; stroke-linecap: square"/>
   </g>
   <g id="text_19">
    <!-- \textbf{SOC band convergence:} $\mathrm{VBr_2}$ -->
    <g transform="translate(100.086578 28.956997) scale(0.2 -0.2)">
     <defs>
      <path id="CMBX12-53" d="M 1626 2782 
C 992 2920 973 3376 973 3465 
C 973 3787 1184 4162 1805 4162 
C 2426 4162 2982 3863 3117 3030 
C 3136 2896 3136 2896 3258 2896 
C 3392 2896 3392 2915 3392 3060 
L 3392 4252 
C 3392 4372 3392 4417 3296 4417 
C 3251 4417 3232 4411 3174 4347 
L 2899 4035 
C 2739 4169 2419 4416 1798 4416 
C 883 4416 397 3846 397 3156 
C 397 2732 627 2434 717 2345 
C 1050 2016 1229 1978 1894 1832 
C 2534 1693 2611 1680 2752 1548 
C 2835 1465 3021 1288 3021 965 
C 3021 692 2886 192 2170 192 
C 1606 192 717 382 666 1307 
C 659 1421 659 1440 531 1440 
C 397 1440 397 1421 397 1275 
L 397 83 
C 397 -38 397 -82 493 -82 
C 538 -82 544 -76 608 -19 
C 678 51 736 134 896 293 
C 1267 1 1792 -81 2176 -81 
C 3174 -81 3597 590 3597 1262 
C 3597 1856 3200 2426 2502 2584 
L 1626 2782 
z
" transform="scale(0.015625)"/>
      <path id="CMBX12-4f" d="M 5005 2132 
C 5005 3485 4122 4416 2701 4416 
C 1274 4416 397 3478 397 2132 
C 397 786 1293 -113 2701 -113 
C 4109 -113 5005 786 5005 2132 
z
M 2701 128 
C 2285 128 1882 326 1638 690 
C 1331 1156 1299 1756 1299 2222 
C 1299 2611 1318 3147 1581 3581 
C 1862 4027 2323 4187 2701 4187 
C 3219 4187 3603 3913 3789 3626 
C 4026 3256 4102 2860 4102 2222 
C 4102 1589 4032 1060 3712 620 
C 3552 403 3200 128 2701 128 
z
" transform="scale(0.015625)"/>
      <path id="CMBX12-43" d="M 4794 4252 
C 4794 4398 4794 4417 4653 4417 
L 4173 3959 
C 3814 4263 3386 4416 2912 4416 
C 1382 4416 397 3497 397 2167 
C 397 862 1350 -81 2918 -81 
C 4058 -81 4794 691 4794 1439 
C 4794 1547 4755 1547 4659 1547 
C 4595 1547 4531 1547 4525 1484 
C 4467 522 3642 192 3066 192 
C 2650 192 2086 307 1728 705 
C 1504 946 1299 1293 1299 2167 
C 1299 2788 1395 3250 1696 3604 
C 2106 4079 2746 4143 3053 4143 
C 3533 4143 4307 3876 4499 2762 
C 4512 2705 4570 2705 4646 2705 
C 4794 2705 4794 2718 4794 2870 
L 4794 4252 
z
" transform="scale(0.015625)"/>
      <path id="CMBX12-62" d="M 1331 4416 
L 224 4416 
L 224 4117 
C 621 4117 666 4117 666 3867 
L 666 0 
L 934 0 
C 1043 123 1152 247 1254 376 
C 1581 38 1933 -32 2189 -32 
C 3072 -32 3750 504 3750 1431 
C 3750 2305 3149 2880 2272 2880 
C 1894 2880 1594 2759 1331 2555 
L 1331 4416 
z
M 1363 2248 
C 1587 2555 1920 2670 2189 2670 
C 2982 2670 2982 1859 2982 1437 
C 2982 1149 2982 785 2829 548 
C 2630 241 2330 178 2125 178 
C 1690 178 1453 484 1363 625 
L 1363 2248 
z
" transform="scale(0.015625)"/>
      <path id="CMBX12-61" d="M 2944 1898 
C 2944 2484 2477 2879 1574 2879 
C 1216 2879 461 2879 461 2334 
C 461 2061 666 1945 838 1945 
C 1030 1945 1216 2079 1216 2323 
C 1216 2445 1171 2559 1062 2630 
C 1274 2688 1427 2688 1549 2688 
C 1984 2688 2246 2445 2246 1919 
L 2246 1663 
C 1235 1663 218 1382 218 676 
C 218 95 960 -32 1402 -32 
C 1894 -32 2208 233 2336 510 
C 2336 274 2336 0 2982 0 
L 3309 0 
C 3443 0 3494 0 3494 145 
C 3494 273 3437 273 3347 273 
C 2944 273 2944 374 2944 522 
L 2944 1898 
z
M 2246 882 
C 2246 291 1709 178 1504 178 
C 1190 178 928 390 928 686 
C 928 1273 1619 1472 2246 1472 
L 2246 882 
z
" transform="scale(0.015625)"/>
      <path id="CMBX12-6e" d="M 3398 1924 
C 3398 2525 3136 2834 2432 2834 
C 1971 2834 1574 2615 1357 2143 
L 1350 2143 
L 1350 2816 
L 269 2816 
L 269 2517 
C 666 2517 710 2517 710 2270 
L 710 260 
L 269 260 
L 269 -13 
C 416 0 877 0 1056 0 
C 1235 0 1702 0 1850 -13 
L 1850 260 
L 1408 260 
L 1408 1607 
C 1408 2289 1920 2624 2330 2624 
C 2566 2624 2701 2473 2701 1993 
L 2701 260 
L 2259 260 
L 2259 -13 
C 2406 0 2867 0 3046 0 
C 3226 0 3693 0 3840 -13 
L 3840 260 
L 3398 260 
L 3398 1924 
z
" transform="scale(0.015625)"/>
      <path id="CMBX12-64" d="M 2221 4416 
L 2221 4117 
C 2618 4117 2662 4117 2662 3867 
L 2662 2575 
C 2522 2696 2240 2880 1798 2880 
C 890 2880 243 2318 243 1424 
C 243 510 877 -32 1728 -32 
C 2080 -32 2381 94 2630 311 
L 2630 0 
L 3770 0 
L 3770 292 
C 3373 292 3328 292 3328 540 
L 3328 4416 
L 2221 4416 
z
M 2630 661 
C 2362 262 2035 178 1805 178 
C 1011 178 1011 989 1011 1411 
C 1011 1712 1011 2032 1152 2274 
C 1350 2632 1728 2670 1875 2670 
C 2138 2670 2419 2556 2630 2276 
L 2630 661 
z
" transform="scale(0.015625)"/>
      <path id="CMBX12-63" d="M 2995 753 
C 2995 829 2925 829 2861 829 
C 2758 829 2752 823 2720 747 
C 2675 625 2502 197 1914 197 
C 1011 197 1011 1166 1011 1453 
C 1011 1829 1018 2664 1856 2664 
C 1901 2664 2278 2664 2278 2632 
C 2278 2624 2272 2618 2259 2612 
C 2240 2593 2157 2496 2157 2334 
C 2157 2064 2374 1954 2534 1954 
C 2669 1954 2912 2039 2912 2346 
C 2912 2880 2176 2880 1830 2880 
C 691 2880 243 2145 243 1414 
C 243 552 851 -32 1792 -32 
C 2797 -32 2995 708 2995 753 
z
" transform="scale(0.015625)"/>
      <path id="CMBX12-6f" d="M 3392 1395 
C 3392 2252 2803 2880 1798 2880 
C 755 2880 198 2220 198 1395 
C 198 565 787 -32 1792 -32 
C 2835 -32 3392 596 3392 1395 
z
M 1798 197 
C 966 197 966 939 966 1459 
C 966 1757 966 2074 1088 2303 
C 1229 2556 1517 2670 1792 2670 
C 2157 2670 2387 2499 2496 2322 
C 2624 2093 2624 1763 2624 1459 
C 2624 932 2624 197 1798 197 
z
" transform="scale(0.015625)"/>
      <path id="CMBX12-76" d="M 3168 2402 
C 3213 2498 3238 2549 3642 2549 
L 3642 2816 
C 3411 2816 3398 2816 3136 2816 
C 2963 2816 2950 2816 2586 2816 
L 2586 2549 
C 2758 2549 2899 2517 2899 2472 
C 2899 2466 2899 2460 2867 2396 
L 2118 763 
L 1293 2549 
L 1645 2549 
L 1645 2822 
C 1498 2816 1050 2816 877 2816 
C 691 2816 320 2816 154 2822 
L 154 2549 
L 557 2549 
L 1683 121 
C 1741 0 1754 -32 1901 -32 
C 2003 -32 2054 -19 2112 108 
L 3168 2402 
z
" transform="scale(0.015625)"/>
      <path id="CMBX12-72" d="M 1331 1411 
C 1331 1619 1376 2624 2125 2624 
C 2035 2555 1990 2448 1990 2336 
C 1990 2079 2202 1972 2362 1972 
C 2522 1972 2733 2079 2733 2337 
C 2733 2658 2400 2834 2093 2834 
C 1587 2834 1370 2401 1280 2137 
L 1274 2137 
L 1274 2816 
L 224 2816 
L 224 2517 
C 621 2517 666 2517 666 2270 
L 666 260 
L 224 260 
L 224 -13 
C 371 0 851 0 1030 0 
C 1216 0 1734 0 1888 -13 
L 1888 260 
L 1331 260 
L 1331 1411 
z
" transform="scale(0.015625)"/>
      <path id="CMBX12-67" d="M 832 1189 
C 1139 1024 1498 1024 1594 1024 
C 2477 1024 2829 1514 2829 1960 
C 2829 2285 2643 2515 2566 2578 
C 2752 2676 2906 2700 3014 2713 
C 2995 2682 2976 2658 2976 2578 
C 2976 2450 3066 2334 3232 2334 
C 3398 2334 3488 2455 3488 2588 
C 3488 2741 3373 2944 3104 2944 
C 2829 2944 2566 2803 2432 2682 
C 2170 2834 1920 2891 1594 2891 
C 710 2891 358 2403 358 1957 
C 358 1760 422 1501 691 1285 
C 582 1161 467 933 467 699 
C 467 420 614 180 749 76 
C 595 39 198 -105 198 -461 
C 198 -830 614 -1248 1792 -1248 
C 2854 -1248 3392 -910 3392 -439 
C 3392 114 3021 295 2861 370 
C 2554 521 2144 521 1581 521 
C 1421 521 1139 521 1107 527 
C 832 575 755 829 755 957 
C 755 1010 762 1107 832 1189 
z
M 1594 1227 
C 1037 1227 1037 1665 1037 1957 
C 1037 2250 1037 2688 1594 2688 
C 2150 2688 2150 2250 2150 1957 
C 2150 1665 2150 1227 1594 1227 
z
M 1952 -64 
C 2419 -64 2867 -145 2867 -467 
C 2867 -685 2643 -1045 1798 -1045 
C 954 -1045 723 -697 723 -461 
C 723 -64 1126 -64 1222 -64 
L 1952 -64 
z
" transform="scale(0.015625)"/>
      <path id="CMBX12-3a" d="M 1459 2358 
C 1459 2619 1248 2816 998 2816 
C 749 2816 538 2619 538 2358 
C 538 2098 749 1900 998 1900 
C 1248 1900 1459 2098 1459 2358 
z
M 1459 458 
C 1459 718 1248 916 998 916 
C 749 916 538 718 538 458 
C 538 197 749 0 998 0 
C 1248 0 1459 197 1459 458 
z
" transform="scale(0.015625)"/>
      <path id="CMBX12-42" d="M 250 4370 
L 250 4096 
L 928 4096 
L 928 273 
L 250 273 
L 250 0 
L 3142 0 
C 4198 0 4717 565 4717 1174 
C 4717 1778 4186 2216 3411 2273 
C 4333 2446 4512 2970 4512 3270 
C 4512 3858 3974 4370 2950 4370 
L 250 4370 
z
M 1715 2368 
L 1715 4096 
L 2874 4096 
C 3533 4096 3667 3597 3667 3276 
C 3667 2828 3418 2368 2669 2368 
L 1715 2368 
z
M 1715 273 
L 1715 2158 
L 2989 2158 
C 3738 2158 3846 1472 3846 1187 
C 3846 787 3629 273 2893 273 
L 1715 273 
z
" transform="scale(0.015625)"/>
     </defs>
     <use xlink:href="#CMBX12-53" transform="scale(0.996264)"/>
     <use xlink:href="#CMBX12-4f" transform="translate(62.266501 0) scale(0.996264)"/>
     <use xlink:href="#CMBX12-43" transform="translate(146.441521 0) scale(0.996264)"/>
     <use xlink:href="#CMBX12-62" transform="translate(264.747872 0) scale(0.996264)"/>
     <use xlink:href="#CMBX12-61" transform="translate(327.014373 0) scale(0.996264)"/>
     <use xlink:href="#CMBX12-6e" transform="translate(381.497561 0) scale(0.996264)"/>
     <use xlink:href="#CMBX12-64" transform="translate(443.764062 0) scale(0.996264)"/>
     <use xlink:href="#CMBX12-63" transform="translate(543.390463 0) scale(0.996264)"/>
     <use xlink:href="#CMBX12-6f" transform="translate(593.203663 0) scale(0.996264)"/>
     <use xlink:href="#CMBX12-6e" transform="translate(649.243514 0) scale(0.996264)"/>
     <use xlink:href="#CMBX12-76" transform="translate(708.396689 0) scale(0.996264)"/>
     <use xlink:href="#CMBX12-65" transform="translate(764.43654 0) scale(0.996264)"/>
     <use xlink:href="#CMBX12-72" transform="translate(815.575807 0) scale(0.996264)"/>
     <use xlink:href="#CMBX12-67" transform="translate(861.353314 0) scale(0.996264)"/>
     <use xlink:href="#CMBX12-65" transform="translate(917.393165 0) scale(0.996264)"/>
     <use xlink:href="#CMBX12-6e" transform="translate(968.532432 0) scale(0.996264)"/>
     <use xlink:href="#CMBX12-63" transform="translate(1030.798933 0) scale(0.996264)"/>
     <use xlink:href="#CMBX12-65" transform="translate(1080.612133 0) scale(0.996264)"/>
     <use xlink:href="#CMBX12-3a" transform="translate(1131.7514 0) scale(0.996264)"/>
     <use xlink:href="#CMBX12-56" transform="translate(1203.370311 0) scale(0.996264)"/>
     <use xlink:href="#CMBX12-42" transform="translate(1288.006706 0) scale(0.996264)"/>
     <use xlink:href="#CMBX12-72" transform="translate(1367.684842 0) scale(0.996264)"/>
     <use xlink:href="#CMBX12-32" transform="translate(1413.462349 -14.943915) scale(0.697382)"/>
    </g>
   </g>
   <g id="legend_1">
    <g id="patch_7">
     <path d="M 316.545689 103.730784 
L 408.349065 103.730784 
Q 410.749065 103.730784 410.749065 101.330784 
L 410.749065 52.356997 
Q 410.749065 49.956997 408.349065 49.956997 
L 316.545689 49.956997 
Q 314.145689 49.956997 314.145689 52.356997 
L 314.145689 101.330784 
Q 314.145689 103.730784 316.545689 103.730784 
z
" style="fill: #ffffff; opacity: 0.8; stroke: #333333; stroke-linejoin: miter"/>
    </g>
    <g id="line2d_36">
     <path d="M 318.945689 58.956997 
L 330.945689 58.956997 
L 342.945689 58.956997 
" style="fill: none; stroke: #1f77b4; stroke-width: 1.5; stroke-linecap: square"/>
    </g>
    <g id="text_20">
     <!-- GBT PSO -->
     <g transform="translate(352.545689 63.156997) scale(0.12 -0.12)">
      <defs>
       <path id="CMR17-47" d="M 3974 1233 
C 3974 1473 3994 1505 4390 1505 
L 4390 1670 
C 4237 1664 3891 1664 3718 1664 
C 3539 1664 3040 1664 2797 1664 
L 2797 1505 
L 2989 1505 
C 3539 1505 3552 1434 3552 1201 
L 3552 774 
C 3552 63 2720 63 2522 63 
C 1862 63 781 511 781 2160 
C 781 3808 1843 4250 2464 4250 
C 3187 4250 3712 3626 3834 2741 
C 3846 2664 3846 2651 3904 2651 
C 3974 2651 3974 2664 3974 2779 
L 3974 4288 
C 3974 4402 3968 4409 3930 4409 
C 3904 4409 3898 4402 3853 4326 
L 3571 3791 
C 3258 4187 2874 4416 2381 4416 
C 1286 4416 294 3456 294 2148 
C 294 845 1267 -128 2394 -128 
C 2912 -128 3418 56 3616 417 
C 3725 158 3904 -20 3936 -20 
C 3968 -20 3974 -13 3974 100 
L 3974 1233 
z
" transform="scale(0.015625)"/>
       <path id="CMR17-42" d="M 333 4352 
L 333 4186 
C 774 4186 845 4186 845 3900 
L 845 452 
C 845 166 774 166 333 166 
L 333 0 
L 2534 0 
C 3354 0 3885 583 3885 1164 
C 3885 1741 3360 2233 2675 2233 
C 3290 2356 3718 2771 3718 3264 
C 3718 3802 3194 4352 2368 4352 
L 333 4352 
z
M 1248 2304 
L 1248 3937 
C 1248 4155 1261 4186 1517 4186 
L 2336 4186 
C 2970 4186 3251 3674 3251 3277 
C 3251 2791 2861 2304 2170 2304 
L 1248 2304 
z
M 1517 166 
C 1261 166 1248 197 1248 413 
L 1248 2202 
L 2432 2202 
C 3091 2202 3411 1625 3411 1162 
C 3411 699 3046 166 2349 166 
L 1517 166 
z
" transform="scale(0.015625)"/>
       <path id="CMR17-54" d="M 3981 4326 
L 288 4326 
L 179 2918 
L 294 2918 
C 378 3976 467 4160 1453 4160 
C 1568 4160 1754 4160 1805 4154 
C 1926 4135 1926 4058 1926 3912 
L 1926 459 
C 1926 230 1907 160 1376 160 
L 1197 160 
L 1197 0 
C 1504 0 1824 0 2138 0 
C 2451 0 2771 0 3078 0 
L 3078 160 
L 2899 160 
C 2368 160 2349 230 2349 459 
L 2349 3912 
C 2349 4052 2349 4129 2464 4154 
C 2515 4160 2701 4160 2816 4160 
C 3795 4160 3891 3976 3974 2918 
L 4090 2918 
L 3981 4326 
z
" transform="scale(0.015625)"/>
       <path id="CMR17-50" d="M 1267 2042 
L 2291 2042 
C 3117 2042 3718 2578 3718 3184 
C 3718 3791 3130 4352 2291 4352 
L 333 4352 
L 333 4186 
C 774 4186 845 4186 845 3899 
L 845 446 
C 845 160 774 160 333 160 
L 333 0 
C 518 0 858 0 1056 0 
C 1254 0 1594 0 1779 0 
L 1779 160 
C 1338 160 1267 160 1267 446 
L 1267 2042 
z
M 1254 2176 
L 1254 3938 
C 1254 4155 1267 4186 1523 4186 
L 2170 4186 
C 2995 4186 3232 3714 3232 3184 
C 3232 2604 2950 2176 2170 2176 
L 1254 2176 
z
" transform="scale(0.015625)"/>
      </defs>
      <use xlink:href="#CMR17-47" transform="scale(0.996264)"/>
      <use xlink:href="#CMR17-42" transform="translate(72.355346 0) scale(0.996264)"/>
      <use xlink:href="#CMR17-54" transform="translate(137.5441 0) scale(0.996264)"/>
      <use xlink:href="#CMR17-50" transform="translate(234.129947 0) scale(0.996264)"/>
      <use xlink:href="#CMR17-53" transform="translate(296.716248 0) scale(0.996264)"/>
      <use xlink:href="#CMR17-4f" transform="translate(347.611618 0) scale(0.996264)"/>
     </g>
    </g>
    <g id="line2d_37">
     <path d="M 318.945689 75.681593 
L 330.945689 75.681593 
L 342.945689 75.681593 
" style="fill: none; stroke: #ff7f0e; stroke-width: 1.5; stroke-linecap: square"/>
    </g>
    <g id="text_21">
     <!-- SC PSO -->
     <g transform="translate(352.545689 79.881593) scale(0.12 -0.12)">
      <use xlink:href="#CMR17-53" transform="scale(0.996264)"/>
      <use xlink:href="#CMR17-43" transform="translate(50.89537 0) scale(0.996264)"/>
      <use xlink:href="#CMR17-50" transform="translate(147.481217 0) scale(0.996264)"/>
      <use xlink:href="#CMR17-53" transform="translate(210.067517 0) scale(0.996264)"/>
      <use xlink:href="#CMR17-4f" transform="translate(260.962887 0) scale(0.996264)"/>
     </g>
    </g>
    <g id="line2d_38">
     <path d="M 318.945689 92.406188 
L 330.945689 92.406188 
L 342.945689 92.406188 
" style="fill: none; stroke: #2ca02c; stroke-width: 1.5; stroke-linecap: square"/>
    </g>
    <g id="text_22">
     <!-- SC FSOC -->
     <g transform="translate(352.545689 96.606188) scale(0.12 -0.12)">
      <defs>
       <path id="CMR17-46" d="M 3482 4325 
L 326 4325 
L 326 4160 
C 768 4160 838 4160 838 3874 
L 838 446 
C 838 160 768 160 326 160 
L 326 0 
C 512 0 870 0 1069 0 
C 1331 0 1638 0 1901 0 
L 1901 160 
L 1760 160 
C 1274 160 1261 223 1261 452 
L 1261 2075 
L 1837 2075 
C 2432 2075 2490 1865 2490 1332 
L 2605 1332 
L 2605 2987 
L 2490 2987 
C 2490 2450 2432 2240 1837 2240 
L 1261 2240 
L 1261 3911 
C 1261 4128 1274 4160 1530 4160 
L 2355 4160 
C 3322 4160 3430 3765 3520 2916 
L 3635 2916 
L 3482 4325 
z
" transform="scale(0.015625)"/>
      </defs>
      <use xlink:href="#CMR17-53" transform="scale(0.996264)"/>
      <use xlink:href="#CMR17-43" transform="translate(50.89537 0) scale(0.996264)"/>
      <use xlink:href="#CMR17-46" transform="translate(147.481217 0) scale(0.996264)"/>
      <use xlink:href="#CMR17-53" transform="translate(207.465063 0) scale(0.996264)"/>
      <use xlink:href="#CMR17-4f" transform="translate(258.360433 0) scale(0.996264)"/>
      <use xlink:href="#CMR17-43" transform="translate(330.075221 0) scale(0.996264)"/>
     </g>
    </g>
   </g>
  </g>
 </g>
 <defs>
  <clipPath id="p88f4336495">
   <rect x="73.962061" y="43.956997" width="342.787003" height="259.127194"/>
  </clipPath>
 </defs>
</svg>
